<?xml version="1.0" encoding="iso-8859-1"?>
<!-- Generator: Adobe Illustrator 19.0.0, SVG Export Plug-In . SVG Version: 6.00 Build 0)  -->
<!-- License: CC0. Made by SVG Repo: https://www.svgrepo.com/svg/140167/sun-stone -->
<svg version="1.1" id="Capa_1" xmlns="http://www.w3.org/2000/svg" xmlns:xlink="http://www.w3.org/1999/xlink" x="0px" y="0px"
	 viewBox="0 0 485 485" style="enable-background:new 0 0 485 485;" xml:space="preserve">
<g>
	<path d="M413.974,71.026C368.171,25.225,307.274,0,242.5,0S116.829,25.225,71.026,71.026C25.225,116.829,0,177.726,0,242.5
		s25.225,125.671,71.026,171.474C116.829,459.775,177.726,485,242.5,485s125.671-25.225,171.474-71.026
		C459.775,368.171,485,307.274,485,242.5S459.775,116.829,413.974,71.026z M242.5,30c68.809,0,130.073,32.883,168.933,83.75H73.567
		C112.427,62.883,173.691,30,242.5,30z M187.5,352.813h-28.333c-13.785,0-25-11.215-25-25s11.215-25,25-25H187.5V352.813z
		 M217.5,430V302.813h50V430c0,13.785-11.215,25-25,25S217.5,443.785,217.5,430z M297.5,302.813h28.333c13.785,0,25,11.215,25,25
		s-11.215,25-25,25H297.5V302.813z M294.251,448.615c2.099-5.817,3.249-12.083,3.249-18.615v-47.188h28.333
		c30.327,0,55-24.673,55-55s-24.673-55-55-55H159.167c-30.327,0-55,24.673-55,55s24.673,55,55,55H187.5V430
		c0,6.531,1.15,12.798,3.249,18.615C98.507,425.446,30,341.828,30,242.5c0-35.628,8.827-69.227,24.387-98.75H227.5v83.75h-13.499v30
		h56.998v-30H257.5v-83.75h173.113C446.173,173.273,455,206.872,455,242.5C455,341.828,386.493,425.446,294.251,448.615z"/>
	<circle cx="197.5" cy="71.875" r="20"/>
	<circle cx="287.5" cy="71.875" r="20"/>
	<path d="M147.5,167.392c-21.764,0-42.066,11.719-52.983,30.584l-4.348,7.513l4.348,7.513
		c10.917,18.865,31.219,30.584,52.983,30.584s42.065-11.719,52.983-30.584l4.348-7.513l-4.348-7.513
		C189.566,179.111,169.264,167.392,147.5,167.392z"/>
	<path d="M390.482,197.976c-10.917-18.865-31.219-30.584-52.982-30.584s-42.065,11.719-52.982,30.584l-4.349,7.513l4.349,7.513
		c10.917,18.865,31.219,30.584,52.982,30.584s42.065-11.719,52.982-30.584l4.349-7.513L390.482,197.976z"/>
</g>
</svg>
